<?xml version="1.0" standalone="no"?>
<!DOCTYPE svg PUBLIC "-//W3C//DTD SVG 20010904//EN"
 "http://www.w3.org/TR/2001/REC-SVG-20010904/DTD/svg10.dtd">
<svg version="1.0" xmlns="http://www.w3.org/2000/svg"
 width="1024.000000pt" height="206.000000pt" viewBox="0 0 1024.000000 206.000000"
 preserveAspectRatio="xMidYMid meet">
<metadata>
Created by potrace 1.16, written by Peter Selinger 2001-2019
</metadata>
<g transform="translate(0.000000,206.000000) scale(0.100000,-0.100000)"
fill="#000000" stroke="none">
<path d="M602 1188 l3 -273 32 -67 c44 -94 109 -160 202 -206 74 -36 77 -37
191 -37 114 0 117 1 192 38 91 45 157 112 202 207 29 61 31 72 31 180 0 108
-2 119 -31 180 -45 95 -111 162 -202 207 l-76 38 -274 3 -273 3 3 -273z m472
212 c130 -19 239 -100 294 -218 23 -49 27 -70 27 -152 0 -88 -3 -101 -33 -162
-37 -75 -104 -142 -179 -179 -41 -21 -63 -24 -153 -24 -98 0 -109 2 -165 32
-71 36 -132 99 -172 175 l-28 53 -3 243 -3 242 173 0 c95 0 204 -5 242 -10z"/>
<path d="M731 1326 c-10 -12 -12 -57 -9 -193 3 -160 6 -183 27 -230 27 -62 94
-126 159 -156 68 -30 180 -29 248 1 112 50 178 155 178 282 0 95 -28 163 -91
221 -80 74 -113 83 -318 87 -156 4 -183 2 -194 -12z m405 -73 c59 -31 110 -93
128 -154 20 -65 20 -73 0 -138 -53 -180 -282 -235 -410 -99 -62 65 -68 88 -72
261 l-4 159 159 -4 c139 -3 163 -6 199 -25z"/>
<path d="M1730 1030 c0 -376 2 -430 15 -430 13 0 15 54 15 430 0 376 -2 430
-15 430 -13 0 -15 -54 -15 -430z"/>
<path d="M2156 1368 c-8 -18 -39 -91 -70 -162 -31 -72 -56 -134 -56 -138 0 -4
6 -8 14 -8 8 0 22 20 33 45 l18 45 88 0 88 0 20 -45 c11 -25 27 -45 35 -45 19
0 19 1 -60 186 -40 92 -71 150 -81 152 -10 2 -20 -8 -29 -30z"/>
<path d="M2331 1388 c1 -32 136 -323 150 -326 11 -2 34 40 84 158 37 88 71
160 74 160 4 0 37 -72 75 -160 50 -117 73 -160 84 -158 12 3 152 305 152 330
0 4 -6 8 -14 8 -8 0 -37 -55 -72 -137 -32 -76 -60 -141 -64 -145 -3 -4 -33 56
-66 135 l-61 142 -33 0 -34 0 -62 -144 c-34 -79 -64 -139 -66 -135 -3 5 -31
71 -63 147 -34 81 -63 137 -71 137 -8 0 -14 -6 -13 -12z"/>
<path d="M3050 1387 c-73 -37 -100 -168 -53 -260 30 -60 122 -85 198 -53 47
20 75 77 75 156 0 115 -46 170 -142 170 -29 0 -64 -6 -78 -13z m133 -29 c72
-37 76 -203 6 -252 -14 -9 -43 -16 -70 -16 -41 0 -51 4 -78 35 -31 36 -37 60
-31 135 6 96 88 142 173 98z"/>
<path d="M3392 1380 c-42 -26 -62 -74 -62 -151 0 -111 49 -169 143 -169 44 0
111 22 122 39 2 4 0 13 -5 20 -6 11 -13 10 -35 -8 -20 -15 -42 -21 -75 -21
-85 0 -126 55 -118 160 4 52 9 66 36 93 28 27 39 32 77 30 24 -1 58 -9 75 -19
22 -14 33 -15 41 -7 9 9 3 17 -22 32 -46 28 -132 28 -177 1z"/>
<path d="M3747 1368 c-8 -18 -40 -93 -71 -166 -32 -74 -55 -136 -52 -139 12
-13 33 8 46 46 l13 41 91 0 91 0 18 -45 c11 -25 25 -45 33 -45 8 0 14 3 14 8
0 4 -31 79 -69 167 -73 172 -90 191 -114 133z"/>
<path d="M3910 1385 c0 -12 13 -15 60 -15 l60 0 0 -155 c0 -131 2 -155 15
-155 13 0 15 24 15 155 l0 155 60 0 c47 0 60 3 60 15 0 13 -22 15 -135 15
-113 0 -135 -2 -135 -15z"/>
<path d="M4261 1387 c-46 -23 -65 -62 -69 -141 -7 -125 40 -186 143 -186 96 0
145 57 145 169 0 117 -44 171 -139 171 -31 0 -67 -6 -80 -13z m139 -36 c36
-25 50 -58 50 -119 0 -91 -41 -142 -115 -142 -73 0 -115 51 -115 140 0 29 7
67 16 85 28 61 104 77 164 36z"/>
<path d="M4685 1378 c-15 -14 -28 -38 -32 -60 -7 -49 25 -81 103 -103 103 -30
128 -61 84 -105 -28 -28 -117 -28 -152 0 -14 10 -28 16 -32 13 -26 -26 43 -63
117 -63 51 0 62 4 88 29 34 34 38 78 12 109 -10 11 -50 30 -90 42 -68 19 -103
40 -103 60 0 25 26 60 50 69 30 10 80 2 119 -18 16 -9 26 -10 33 -3 7 7 0 17
-23 31 -49 30 -139 29 -174 -1z"/>
<path d="M5010 1387 c-47 -24 -70 -73 -70 -149 0 -122 46 -178 145 -178 54 0
92 15 109 42 17 27 0 32 -30 9 -42 -33 -115 -29 -156 8 -32 29 -33 32 -33 110
0 78 1 82 33 113 27 28 39 33 77 32 24 0 55 -8 69 -17 31 -21 46 -21 46 -2 0
38 -133 61 -190 32z"/>
<path d="M5314 1381 c-87 -53 -84 -251 5 -304 40 -23 117 -22 158 3 87 52 96
220 17 290 -30 26 -42 30 -92 30 -38 0 -67 -6 -88 -19z m152 -28 c61 -40 66
-174 8 -234 -23 -24 -36 -29 -75 -29 -83 0 -126 60 -117 162 11 107 100 156
184 101z"/>
<path d="M5610 1230 l0 -170 121 0 120 0 20 45 20 45 89 0 88 0 18 -45 c15
-40 44 -63 44 -35 0 6 -30 83 -67 170 -47 111 -73 160 -84 160 -11 0 -36 -47
-83 -157 l-67 -158 -94 3 -95 3 0 155 c0 130 -2 154 -15 154 -13 0 -15 -26
-15 -170z"/>
<path d="M6190 1230 c0 -204 18 -235 22 -39 l3 132 57 -129 c31 -71 63 -130
70 -132 10 -2 32 39 69 124 l54 126 3 -126 c2 -103 5 -126 17 -126 13 0 15 27
15 170 0 137 -3 170 -14 170 -8 0 -39 -60 -76 -145 -35 -79 -66 -143 -69 -141
-3 3 -33 68 -66 145 -33 77 -66 141 -72 141 -10 0 -13 -41 -13 -170z"/>
<path d="M6690 1230 l0 -170 105 0 c87 0 105 3 105 15 0 12 -17 15 -90 15
l-90 0 0 65 0 65 85 0 c69 0 85 3 85 15 0 12 -16 15 -85 15 l-85 0 0 60 0 60
90 0 c73 0 90 3 90 15 0 12 -18 15 -105 15 l-105 0 0 -170z"/>
<path d="M6960 1230 c0 -144 2 -170 15 -170 12 0 15 15 15 75 l0 75 63 0 c75
0 86 -9 113 -89 17 -48 37 -72 50 -59 5 6 -44 139 -56 152 -6 6 1 19 15 32 36
33 34 86 -4 125 -28 28 -33 29 -120 29 l-91 0 0 -170z m190 120 c26 -26 25
-64 -2 -90 -17 -16 -35 -20 -90 -20 l-68 0 0 65 0 65 70 0 c57 0 74 -4 90 -20z"/>
<path d="M7316 1370 c-81 -72 -67 -251 24 -297 35 -18 106 -16 146 3 68 32 96
160 55 251 -24 52 -63 73 -135 73 -47 0 -60 -4 -90 -30z m162 -17 c63 -39 70
-171 12 -233 -24 -25 -36 -30 -78 -30 -61 0 -95 28 -112 90 -37 137 70 240
178 173z"/>
<path d="M7740 1231 c0 -145 2 -171 15 -171 13 0 15 22 15 133 l1 132 58 -130
c31 -71 64 -131 72 -133 9 -1 32 40 69 125 l55 126 3 -126 c2 -104 5 -127 17
-127 13 0 15 27 15 171 0 217 -8 219 -93 22 -34 -78 -65 -139 -69 -135 -3 4
-33 68 -66 142 -83 192 -92 189 -92 -29z"/>
<path d="M8320 1393 c-52 -19 -83 -78 -82 -157 0 -117 49 -176 147 -176 54 0
92 15 109 42 17 27 0 32 -30 9 -37 -29 -111 -29 -148 0 -35 28 -47 61 -47 126
0 96 55 149 139 133 24 -4 49 -13 55 -19 16 -16 37 -14 37 4 0 33 -122 59
-180 38z"/>
<path d="M8570 1230 c0 -144 2 -170 15 -170 12 0 15 16 15 80 l0 80 105 0 105
0 0 -80 c0 -64 3 -80 15 -80 13 0 15 26 15 170 0 144 -2 170 -15 170 -12 0
-15 -15 -15 -75 l0 -75 -105 0 -105 0 0 75 c0 60 -3 75 -15 75 -13 0 -15 -26
-15 -170z"/>
<path d="M8920 1230 l0 -170 105 0 c87 0 105 3 105 15 0 12 -17 15 -90 15
l-90 0 0 65 0 65 85 0 c69 0 85 3 85 15 0 12 -16 15 -85 15 l-85 0 0 60 0 60
90 0 c73 0 90 3 90 15 0 12 -18 15 -105 15 l-105 0 0 -170z"/>
<path d="M9190 1230 l0 -170 100 0 c82 0 100 3 100 15 0 12 -16 15 -85 15
l-85 0 0 155 c0 131 -2 155 -15 155 -13 0 -15 -26 -15 -170z"/>
<path d="M9440 1230 l0 -170 106 0 c80 0 105 3 102 13 -3 8 -33 13 -91 15
l-87 3 0 64 0 65 85 0 c69 0 85 3 85 15 0 12 -16 15 -85 15 l-85 0 0 60 0 59
87 3 c58 2 88 7 91 16 3 9 -22 12 -102 12 l-106 0 0 -170z"/>
</g>
</svg>
